# xmcd
#
# Track frame offsets:
#	150
#	16587
#	31258
#	47640
#	69133
#	85315
#	99631
#	115664
#	131057
#
# Disc length: 2246 seconds
#
# Revision: 4
# Processed by: cddbd v1.5.2PL0 Copyright (c) Steve Scherf et al.
# Submitted via: audiograbber 1.83.01
#
DISCID=6508c409
DTITLE=Kris Kristofferson - The Complete Monument and Columbia Albums Collection 
DTITLE=(CD 07) - Who's To Bless....And Who's To Blame [remastered 2016]
DYEAR=1975
DGENRE=Singer/Songwriter
TTITLE0=The Year 2000 Minus 25
TTITLE1=If It's All The Same To You
TTITLE2=Easy, Come On
TTITLE3=Stallion
TTITLE4=Rocket To Stardom
TTITLE5=Stranger
TTITLE6=Who's To Bless And Who's To Blame
TTITLE7=Don't Cuss The Fiddle
TTITLE8=Silver (The Hunger)
EXTD=
EXTT0=
EXTT1=
EXTT2=
EXTT3=
EXTT4=
EXTT5=
EXTT6=
EXTT7=
EXTT8=
PLAYORDER=
